<svg width="128" height="66" viewBox="0 0 128 66" fill="none" xmlns="http://www.w3.org/2000/svg">
<g clip-path="url(#clip0_12_424)">
<path fill-rule="evenodd" clip-rule="evenodd" d="M88.7444 19.968C88.7444 8.93784 97.5281 0 108.376 0C119.216 0 128 8.94608 128 19.968C128 30.9982 119.216 39.9361 108.376 39.9361C97.5362 39.9361 88.7444 30.9982 88.7444 19.968Z" fill="#FF9100"/>
<path d="M108.368 14.7784C105.543 14.7784 103.252 17.1096 103.252 19.9845C103.252 22.8595 105.543 25.1907 108.368 25.1907C111.194 25.1907 113.485 22.8595 113.485 19.9845C113.485 17.1096 111.194 14.7784 108.368 14.7784ZM108.368 29.8368C103.025 29.8368 98.6858 25.4296 98.6858 19.9845C98.6858 14.5395 103.017 10.1323 108.368 10.1323C113.719 10.1323 118.051 14.5395 118.051 19.9845C118.051 25.4296 113.719 29.8368 108.368 29.8368ZM106.061 19.9845C106.061 18.6912 107.089 17.6368 108.368 17.6368C109.647 17.6368 110.675 18.6912 110.675 19.9845C110.675 21.2779 109.639 22.3323 108.368 22.3323C107.097 22.3323 106.061 21.2779 106.061 19.9845Z" fill="white"/>
<path fill-rule="evenodd" clip-rule="evenodd" d="M36.3979 57.9025C36.4789 56.6092 37.758 56.0243 39.029 56.0243C40.3 56.0243 41.6601 56.6257 41.6601 58.0096V65.7118H42.7449V58.0343C42.7449 56.0079 40.8991 55.0523 39.0533 55.0358C37.847 55.0358 36.5112 55.5136 35.9364 56.5268C35.4912 55.5136 34.2607 54.9946 32.9654 54.9946C31.9696 54.9946 30.8686 55.25 30.0833 56.1397V55.1429H29.0066V65.7118H30.0833V58.1991C30.0833 56.8646 31.4434 56.0243 32.7953 55.9831C34.0259 55.9584 35.2564 56.5845 35.3374 57.919V65.7118H36.3979V57.9025Z" fill="white"/>
<path fill-rule="evenodd" clip-rule="evenodd" d="M46.0885 57.9023C46.0885 57.0621 46.809 56.5019 47.7157 56.2383C48.5253 56.0241 49.432 56.0241 50.2415 56.2383C52.1278 56.7737 52.4678 59.3686 50.6706 60.2253C49.2458 60.9173 47.0033 60.6784 46.0885 60.7196V57.8941V57.9023ZM46.0885 61.6834C47.5052 61.6834 49.691 61.9882 51.1725 61.1644C53.7388 59.7805 53.2693 56.0488 50.5168 55.2086C49.521 54.9285 48.4362 54.9285 47.4404 55.2086C46.0642 55.5958 45.0037 56.4772 45.0037 57.9023V62.6884C45.0037 63.2897 45.1332 63.8334 45.4732 64.3277C46.0237 65.0855 46.9952 65.5798 48.08 65.7528C48.7196 65.8599 49.2862 65.8352 49.9258 65.7281C51.0106 65.5551 52.0469 65.1267 52.6621 64.1135L51.7554 63.5533C51.2859 64.2206 50.5654 64.5501 49.7801 64.6572C49.2053 64.7643 48.6791 64.7643 48.1043 64.6572C47.3595 64.5254 46.7037 64.1794 46.3475 63.6851C46.1532 63.4051 46.0966 63.125 46.0966 62.779V61.6751L46.0885 61.6834Z" fill="white"/>
<path fill-rule="evenodd" clip-rule="evenodd" d="M61.6886 50.5297V56.3784C59.9561 54.2861 54.8235 55.0604 54.8235 58.2731V63.0427C54.8235 64.4678 55.884 65.374 57.2441 65.7364C58.8146 66.1648 60.9357 65.7611 61.7776 64.5255V65.7117H62.7572V50.5215H61.6967L61.6886 50.5297ZM61.6886 62.5649C61.6886 64.2042 60.118 64.855 58.7822 64.855C58.3613 64.855 57.916 64.8138 57.5355 64.7067C56.6045 64.4431 55.884 63.8829 55.884 63.0427H55.9083V58.2319C55.9083 55.5135 61.6967 55.7277 61.6967 58.0836V62.5732L61.6886 62.5649Z" fill="white"/>
<path fill-rule="evenodd" clip-rule="evenodd" d="M65.0645 52.5151H66.2707V50.5957H65.0645V52.5151ZM65.1292 65.72H66.214V55.1511H65.1292V65.72Z" fill="white"/>
<path fill-rule="evenodd" clip-rule="evenodd" d="M74.8116 59.3771C72.7148 58.9652 70.618 59.097 69.2984 60.0032C67.1369 61.4448 67.4769 64.987 70.359 65.786C70.869 65.9178 71.3952 66.0002 71.9052 66.0002C72.9496 66.0002 74.091 65.786 75.0059 64.8799C75.3216 65.5471 76.0259 65.8107 76.9164 65.7448V64.7728C76.3821 64.7728 75.8802 64.5586 75.8802 63.7596V58.0838C75.8802 57.4989 75.7749 56.9635 75.4349 56.4692C74.0344 54.5087 69.5008 54.6158 68.246 56.6669L69.1527 57.2518C69.598 56.5846 70.3428 56.2633 71.1038 56.1315C71.6947 56.0409 72.2048 56.0244 72.7796 56.1315C73.5405 56.2798 74.2044 56.6093 74.5606 57.12C74.7549 57.3754 74.8116 57.6802 74.8116 58.0014V59.3854V59.3771ZM74.8116 63.0841C74.8116 64.4598 73.0062 64.8963 71.9052 64.8963C71.46 64.8963 71.039 64.8552 70.6585 64.7481C68.6265 64.1632 68.497 61.8402 69.9785 60.7775C71.1847 59.9126 73.241 59.9538 74.8116 60.3656V63.0841Z" fill="white"/>
<path d="M3.90209 4.92616V20.8331H10.2895C13.8111 20.8331 16.6203 19.3668 16.6203 17.0932V8.66605C16.6203 5.77464 12.443 4.96735 10.3381 4.92616H3.91019H3.90209ZM20.5143 17.1014C20.5143 22.4476 15.1307 24.8613 10.2895 24.8613H3.90209V38.9476H0V0.963856H10.33C14.5155 0.963856 20.5062 3.08917 20.5062 8.67429V17.1014H20.5143ZM30.2777 34.0874C31.3868 34.8123 33.443 35.2407 35.6532 35.2407H36.4222C38.7862 35.2407 40.972 34.9606 42.162 34.1945C43.2064 33.5767 43.8297 32.5882 43.8297 31.4019V0.963856H47.7804V31.4019C47.7804 34.0957 46.388 36.1798 44.2183 37.539C42.3159 38.7335 39.3529 39.3183 36.4627 39.2607H35.9608C33.0706 39.3183 30.1076 38.7335 28.2052 37.539C26.0355 36.1798 24.6431 34.0874 24.6431 31.4019V0.963856H28.5938V31.4019C28.5938 32.5635 29.2009 33.4614 30.2615 34.0957L30.2777 34.0874ZM68.6428 34.6888C70.7477 34.0874 71.9782 32.9012 71.9782 31.4019V30.71L75.9289 30.6276V31.3443C75.9289 35.2325 73.1197 37.5637 69.7358 38.544C66.8456 39.3595 62.1501 39.3595 59.3248 38.6016C55.8356 37.679 52.8645 35.2984 52.8078 31.4019V8.49306C52.8645 4.18478 56.4184 1.77938 60.2963 1.02152C63.1945 0.486073 67.4285 0.527261 70.2296 1.46635C73.4112 2.56196 75.937 4.85202 75.937 8.5013V9.20974H71.9863V8.5013C71.9863 7.02676 70.861 5.8982 69.0233 5.25567C66.8051 4.52252 63.405 4.51428 61.0168 4.96735C58.4424 5.47808 56.7585 6.77139 56.7585 8.5013V31.4102C56.7585 32.9342 58.1023 34.1368 60.3448 34.7464C62.644 35.3395 66.3599 35.3395 68.6509 34.697L68.6428 34.6888Z" fill="white"/>
</g>
<defs>
<clipPath id="clip0_12_424">
<rect width="128" height="66" fill="white"/>
</clipPath>
</defs>
</svg>
